# Blender v2.79 (sub 0) OBJ File: ''
# www.blender.org
mtllib cube.mtl
o Cube
v 0.000000 -0.878472 -0.000000
v 0.350694 -0.819444 -0.000000
v -0.000000 -0.819444 0.350694
v -0.350694 -0.819444 -0.000000
v 0.000000 -0.819444 -0.350695
v 0.326389 -0.763889 -0.326389
v 0.326389 -0.763889 0.326389
v -0.326389 -0.763889 0.326389
v -0.326389 -0.763889 -0.326389
v -0.000000 0.878472 0.000000
v 0.000000 0.819444 -0.350694
v -0.350695 0.819444 0.000000
v -0.000000 0.819444 0.350695
v 0.350694 0.819444 0.000000
v 0.326389 0.763889 -0.326389
v -0.326389 0.763889 -0.326389
v -0.326389 0.763889 0.326389
v 0.326389 0.763889 0.326389
v 0.878472 0.000000 0.000000
v 0.819445 0.000000 -0.350694
v 0.819444 0.350694 0.000000
v 0.819444 0.000000 0.350695
v 0.819444 -0.350694 0.000000
v 0.763889 -0.326389 -0.326389
v 0.763889 0.326389 -0.326389
v 0.763889 0.326389 0.326389
v 0.763889 -0.326389 0.326389
v -0.000000 0.000000 0.878472
v 0.350694 0.000000 0.819445
v -0.000000 0.350694 0.819444
v -0.350695 0.000000 0.819444
v -0.000000 -0.350694 0.819444
v 0.326389 -0.326389 0.763889
v 0.326389 0.326389 0.763889
v -0.326389 0.326389 0.763889
v -0.326389 -0.326389 0.763889
v -0.878472 0.000000 -0.000000
v -0.819445 0.000000 0.350694
v -0.819444 0.350694 -0.000000
v -0.819444 0.000000 -0.350695
v -0.819444 -0.350694 -0.000000
v -0.763889 -0.326389 0.326389
v -0.763889 0.326389 0.326389
v -0.763889 0.326389 -0.326389
v -0.763889 -0.326389 -0.326389
v 0.000000 0.000000 -0.878472
v 0.350695 0.000000 -0.819444
v 0.000000 -0.350694 -0.819444
v -0.350694 0.000000 -0.819445
v 0.000000 0.350694 -0.819444
v 0.326389 0.326389 -0.763889
v 0.326389 -0.326389 -0.763889
v -0.326389 -0.326389 -0.763889
v -0.326389 0.326389 -0.763889
v 0.598958 -0.598958 -0.302083
v 0.643229 -0.643229 0.000000
v 0.598958 -0.598958 0.302083
v 0.302083 -0.598958 -0.598958
v 0.000000 -0.643229 -0.643229
v -0.302083 -0.598958 -0.598958
v 0.598958 -0.302083 -0.598958
v 0.643229 0.000000 -0.643229
v 0.598958 0.302083 -0.598958
v 0.302083 -0.598958 0.598958
v -0.000000 -0.643229 0.643229
v -0.302083 -0.598958 0.598958
v 0.598958 -0.302083 0.598958
v 0.643229 0.000000 0.643229
v 0.598958 0.302083 0.598959
v -0.598958 -0.598958 0.302083
v -0.643229 -0.643229 -0.000000
v -0.598958 -0.598958 -0.302084
v -0.598958 -0.302083 0.598958
v -0.643229 0.000000 0.643229
v -0.598959 0.302083 0.598958
v -0.598958 -0.302083 -0.598958
v -0.643229 0.000000 -0.643229
v -0.598958 0.302083 -0.598958
v 0.598958 0.598958 -0.302083
v 0.643229 0.643229 0.000000
v 0.598958 0.598958 0.302084
v 0.302083 0.598958 -0.598958
v 0.000000 0.643229 -0.643229
v -0.302083 0.598958 -0.598958
v 0.302083 0.598958 0.598959
v -0.000000 0.643229 0.643229
v -0.302084 0.598958 0.598958
v -0.598958 0.598958 0.302083
v -0.643229 0.643229 -0.000000
v -0.598958 0.598958 -0.302083
v 0.509259 -0.509259 -0.509259
v 0.509259 -0.509259 0.509259
v -0.509259 -0.509259 0.509259
v -0.509259 -0.509259 -0.509259
v 0.509259 0.509259 -0.509259
v 0.509259 0.509259 0.509260
v -0.509260 0.509259 0.509259
v -0.509259 0.509259 -0.509259
vt -0.500000 -0.500000
vt -0.500000 -0.250000
vt -0.250000 -0.250000
vt -0.250000 -0.500000
vt 0.000000 -0.250000
vt 0.000000 -0.500000
vt -0.500000 0.000000
vt -0.250000 0.000000
vt 0.000000 0.000000
vt -0.250000 -0.750000
vt -0.500000 -0.750000
vt -0.250000 -1.000000
vt -0.500000 -1.000000
vt 0.000000 -0.750000
vt 0.000000 -1.000000
vt -0.750000 -0.750000
vt -0.750000 -0.500000
vt -1.000000 -0.750000
vt -1.000000 -0.500000
vt -0.750000 -1.000000
vt -1.000000 -1.000000
vt -0.750000 -0.250000
vt -0.750000 0.000000
vt -1.000000 -0.250000
vt -1.000000 0.000000
vt -0.500000 0.500000
vt -0.250000 0.500000
vt -0.250000 0.750000
vt -0.500000 0.750000
vt -0.250000 1.000000
vt -0.500000 1.000000
vt -0.000000 0.500000
vt 0.000000 0.750000
vt 0.000000 1.000000
vt -0.750000 0.750000
vt -0.750000 0.500000
vt -1.000000 0.750000
vt -1.000000 0.500000
vt -0.750000 1.000000
vt -1.000000 1.000000
vt -0.750000 0.250000
vt -0.500000 0.250000
vt -0.750000 0.000000
vt -0.500000 -0.000000
vt -1.000000 0.250000
vt -1.000000 0.000000
vt -0.250000 0.250000
vt -0.000000 0.250000
vt -0.250000 -0.000000
vt -0.000000 -0.000000
vt -0.500000 0.500000
vt -0.500000 0.250000
vt -0.250000 0.250000
vt -0.250000 0.500000
vt 0.000000 0.250000
vt 0.000000 0.500000
vt -0.500000 0.000000
vt -0.250000 0.000000
vt -0.250000 0.750000
vt -0.500000 0.750000
vt -0.250000 1.000000
vt -0.500000 1.000000
vt 0.000000 0.750000
vt -0.750000 0.750000
vt -0.750000 0.500000
vt -1.000000 0.750000
vt -1.000000 0.500000
vt -0.750000 1.000000
vt -1.000000 1.000000
vt -0.750000 0.250000
vt -0.750000 0.000000
vt -1.000000 0.250000
vt -1.000000 0.000000
vt -0.500000 0.500000
vt -0.500000 0.250000
vt -0.250000 0.250000
vt -0.250000 0.500000
vt -0.000000 0.250000
vt -0.000000 0.500000
vt -0.500000 0.000000
vt -0.250000 0.000000
vt 0.000000 0.000000
vt -0.250000 0.750000
vt -0.500000 0.750000
vt -0.250000 1.000000
vt -0.500000 1.000000
vt -0.000000 0.750000
vt -0.000000 1.000000
vt -0.750000 0.750000
vt -0.750000 0.500000
vt -1.000000 0.750000
vt -1.000000 0.500000
vt -0.750000 1.000000
vt -1.000000 1.000000
vt -0.750000 0.250000
vt -0.750000 0.000000
vt -1.000000 0.250000
vt -1.000000 0.000000
vt 0.500000 0.500000
vt 0.500000 0.250000
vt 0.250000 0.250000
vt 0.250000 0.500000
vt 0.000000 0.250000
vt 0.000000 0.500000
vt 0.500000 0.000000
vt 0.250000 0.000000
vt 0.000000 0.000000
vt 0.250000 0.750000
vt 0.500000 0.750000
vt 0.250000 1.000000
vt 0.500000 1.000000
vt 0.000000 0.750000
vt 0.000000 1.000000
vt 0.750000 0.750000
vt 0.750000 0.500000
vt 1.000000 0.750000
vt 1.000000 0.500000
vt 0.750000 1.000000
vt 1.000000 1.000000
vt 0.750000 0.250000
vt 0.750000 0.000000
vt 1.000000 0.250000
vt 1.000000 0.000000
vt -0.500000 -0.500000
vt -0.500000 -0.250000
vt -0.250000 -0.250000
vt -0.250000 -0.500000
vt 0.000000 -0.250000
vt 0.000000 -0.500000
vt -0.500000 0.000000
vt -0.250000 0.000000
vt 0.000000 0.000000
vt -0.250000 -0.750000
vt -0.500000 -0.750000
vt -0.250000 -1.000000
vt -0.500000 -1.000000
vt 0.000000 -0.750000
vt 0.000000 -1.000000
vt -0.750000 -0.750000
vt -0.750000 -0.500000
vt -1.000000 -0.750000
vt -1.000000 -0.500000
vt -0.750000 -1.000000
vt -1.000000 -1.000000
vt -0.750000 -0.250000
vt -0.750000 0.000000
vt -1.000000 -0.250000
vt -1.000000 0.000000
vn 0.1704 -0.9705 -0.1704
vn 0.5134 -0.8371 -0.1890
vn 0.1890 -0.8371 -0.5134
vn 0.4961 -0.7126 -0.4961
vn 0.1704 -0.9705 0.1704
vn 0.1890 -0.8371 0.5134
vn 0.5134 -0.8371 0.1890
vn 0.4961 -0.7126 0.4961
vn -0.1704 -0.9705 0.1704
vn -0.5134 -0.8371 0.1890
vn -0.1890 -0.8371 0.5134
vn -0.4961 -0.7126 0.4961
vn -0.1704 -0.9705 -0.1704
vn -0.1890 -0.8371 -0.5134
vn -0.5134 -0.8371 -0.1890
vn -0.4961 -0.7126 -0.4961
vn 0.1704 0.9705 -0.1704
vn 0.1890 0.8371 -0.5134
vn 0.5134 0.8371 -0.1890
vn 0.4961 0.7126 -0.4961
vn -0.1704 0.9705 -0.1704
vn -0.5134 0.8371 -0.1890
vn -0.1890 0.8371 -0.5134
vn -0.4961 0.7126 -0.4961
vn -0.1704 0.9705 0.1704
vn -0.1890 0.8371 0.5134
vn -0.5134 0.8371 0.1890
vn -0.4961 0.7126 0.4961
vn 0.1704 0.9705 0.1704
vn 0.5134 0.8371 0.1890
vn 0.1890 0.8371 0.5134
vn 0.4961 0.7126 0.4961
vn 0.9705 -0.1704 -0.1704
vn 0.8371 -0.1890 -0.5134
vn 0.8371 -0.5134 -0.1890
vn 0.7126 -0.4961 -0.4961
vn 0.9705 0.1704 -0.1704
vn 0.8371 0.5134 -0.1890
vn 0.8371 0.1890 -0.5134
vn 0.7126 0.4961 -0.4961
vn 0.9705 0.1704 0.1704
vn 0.8371 0.1890 0.5134
vn 0.8371 0.5134 0.1890
vn 0.7126 0.4961 0.4961
vn 0.9705 -0.1704 0.1704
vn 0.8371 -0.5134 0.1890
vn 0.8371 -0.1890 0.5134
vn 0.7126 -0.4961 0.4961
vn 0.1704 -0.1704 0.9705
vn 0.5134 -0.1890 0.8371
vn 0.1890 -0.5134 0.8371
vn 0.4961 -0.4961 0.7126
vn 0.1704 0.1704 0.9705
vn 0.1890 0.5134 0.8371
vn 0.5134 0.1890 0.8371
vn 0.4961 0.4961 0.7126
vn -0.1704 0.1704 0.9705
vn -0.5134 0.1890 0.8371
vn -0.1890 0.5134 0.8371
vn -0.4961 0.4961 0.7126
vn -0.1704 -0.1704 0.9705
vn -0.1890 -0.5134 0.8371
vn -0.5134 -0.1890 0.8371
vn -0.4961 -0.4961 0.7126
vn -0.9705 -0.1704 0.1704
vn -0.8371 -0.1890 0.5134
vn -0.8371 -0.5134 0.1890
vn -0.7126 -0.4961 0.4961
vn -0.9705 0.1704 0.1704
vn -0.8371 0.5134 0.1890
vn -0.8371 0.1890 0.5134
vn -0.7126 0.4961 0.4961
vn -0.9705 0.1704 -0.1704
vn -0.8371 0.1890 -0.5134
vn -0.8371 0.5134 -0.1890
vn -0.7126 0.4961 -0.4961
vn -0.9705 -0.1704 -0.1704
vn -0.8371 -0.5134 -0.1890
vn -0.8371 -0.1890 -0.5134
vn -0.7126 -0.4961 -0.4961
vn 0.1704 0.1704 -0.9705
vn 0.5134 0.1890 -0.8371
vn 0.1890 0.5134 -0.8371
vn 0.4961 0.4961 -0.7126
vn 0.1704 -0.1704 -0.9705
vn 0.1890 -0.5134 -0.8371
vn 0.5134 -0.1890 -0.8371
vn 0.4961 -0.4961 -0.7126
vn -0.1704 -0.1704 -0.9705
vn -0.5134 -0.1890 -0.8371
vn -0.1890 -0.5134 -0.8371
vn -0.4961 -0.4961 -0.7126
vn -0.1704 0.1704 -0.9705
vn -0.1890 0.5134 -0.8371
vn -0.5134 0.1890 -0.8371
vn -0.4961 0.4961 -0.7126
usemtl Material
s off
f 1/1/1 5/2/1 6/3/1 2/4/1
f 2/4/2 6/3/2 55/5/2 56/6/2
f 5/2/3 59/7/3 58/8/3 6/3/3
f 6/3/4 58/8/4 91/9/4 55/5/4
f 1/1/5 2/4/5 7/10/5 3/11/5
f 3/11/6 7/10/6 64/12/6 65/13/6
f 2/4/7 56/6/7 57/14/7 7/10/7
f 7/10/8 57/14/8 92/15/8 64/12/8
f 1/1/9 3/11/9 8/16/9 4/17/9
f 4/17/10 8/16/10 70/18/10 71/19/10
f 3/11/11 65/13/11 66/20/11 8/16/11
f 8/16/12 66/20/12 93/21/12 70/18/12
f 1/1/13 4/17/13 9/22/13 5/2/13
f 5/2/14 9/22/14 60/23/14 59/7/14
f 4/17/15 71/19/15 72/24/15 9/22/15
f 9/22/16 72/24/16 94/25/16 60/23/16
f 10/26/17 14/27/17 15/28/17 11/29/17
f 11/29/18 15/28/18 82/30/18 83/31/18
f 14/27/19 80/32/19 79/33/19 15/28/19
f 15/28/20 79/33/20 95/34/20 82/30/20
f 10/26/21 11/29/21 16/35/21 12/36/21
f 12/36/22 16/35/22 90/37/22 89/38/22
f 11/29/23 83/31/23 84/39/23 16/35/23
f 16/35/24 84/39/24 98/40/24 90/37/24
f 10/26/25 12/36/25 17/41/25 13/42/25
f 13/42/26 17/41/26 87/43/26 86/44/26
f 12/36/27 89/38/27 88/45/27 17/41/27
f 17/41/28 88/45/28 97/46/28 87/43/28
f 10/26/29 13/42/29 18/47/29 14/27/29
f 14/27/30 18/47/30 81/48/30 80/32/30
f 13/42/31 86/44/31 85/49/31 18/47/31
f 18/47/32 85/49/32 96/50/32 81/48/32
f 19/51/33 23/52/33 24/53/33 20/54/33
f 20/54/34 24/53/34 61/55/34 62/56/34
f 23/52/35 56/57/35 55/58/35 24/53/35
f 24/53/36 55/58/36 91/9/36 61/55/36
f 19/51/37 20/54/37 25/59/37 21/60/37
f 21/60/38 25/59/38 79/61/38 80/62/38
f 20/54/39 62/56/39 63/63/39 25/59/39
f 25/59/40 63/63/40 95/34/40 79/61/40
f 19/51/41 21/60/41 26/64/41 22/65/41
f 22/65/42 26/64/42 69/66/42 68/67/42
f 21/60/43 80/62/43 81/68/43 26/64/43
f 26/64/44 81/68/44 96/69/44 69/66/44
f 19/51/45 22/65/45 27/70/45 23/52/45
f 23/52/46 27/70/46 57/71/46 56/57/46
f 22/65/47 68/67/47 67/72/47 27/70/47
f 27/70/48 67/72/48 92/73/48 57/71/48
f 28/74/49 32/75/49 33/76/49 29/77/49
f 29/77/50 33/76/50 67/78/50 68/79/50
f 32/75/51 65/80/51 64/81/51 33/76/51
f 33/76/52 64/81/52 92/82/52 67/78/52
f 28/74/53 29/77/53 34/83/53 30/84/53
f 30/84/54 34/83/54 85/85/54 86/86/54
f 29/77/55 68/79/55 69/87/55 34/83/55
f 34/83/56 69/87/56 96/88/56 85/85/56
f 28/74/57 30/84/57 35/89/57 31/90/57
f 31/90/58 35/89/58 75/91/58 74/92/58
f 30/84/59 86/86/59 87/93/59 35/89/59
f 35/89/60 87/93/60 97/94/60 75/91/60
f 28/74/61 31/90/61 36/95/61 32/75/61
f 32/75/62 36/95/62 66/96/62 65/80/62
f 31/90/63 74/92/63 73/97/63 36/95/63
f 36/95/64 73/97/64 93/98/64 66/96/64
f 37/99/65 41/100/65 42/101/65 38/102/65
f 38/102/66 42/101/66 73/103/66 74/104/66
f 41/100/67 71/105/67 70/106/67 42/101/67
f 42/101/68 70/106/68 93/107/68 73/103/68
f 37/99/69 38/102/69 43/108/69 39/109/69
f 39/109/70 43/108/70 88/110/70 89/111/70
f 38/102/71 74/104/71 75/112/71 43/108/71
f 43/108/72 75/112/72 97/113/72 88/110/72
f 37/99/73 39/109/73 44/114/73 40/115/73
f 40/115/74 44/114/74 78/116/74 77/117/74
f 39/109/75 89/111/75 90/118/75 44/114/75
f 44/114/76 90/118/76 98/119/76 78/116/76
f 37/99/77 40/115/77 45/120/77 41/100/77
f 41/100/78 45/120/78 72/121/78 71/105/78
f 40/115/79 77/117/79 76/122/79 45/120/79
f 45/120/80 76/122/80 94/123/80 72/121/80
f 46/124/81 50/125/81 51/126/81 47/127/81
f 47/127/82 51/126/82 63/128/82 62/129/82
f 50/125/83 83/130/83 82/131/83 51/126/83
f 51/126/84 82/131/84 95/132/84 63/128/84
f 46/124/85 47/127/85 52/133/85 48/134/85
f 48/134/86 52/133/86 58/135/86 59/136/86
f 47/127/87 62/129/87 61/137/87 52/133/87
f 52/133/88 61/137/88 91/138/88 58/135/88
f 46/124/89 48/134/89 53/139/89 49/140/89
f 49/140/90 53/139/90 76/141/90 77/142/90
f 48/134/91 59/136/91 60/143/91 53/139/91
f 53/139/92 60/143/92 94/144/92 76/141/92
f 46/124/93 49/140/93 54/145/93 50/125/93
f 50/125/94 54/145/94 84/146/94 83/130/94
f 49/140/95 77/142/95 78/147/95 54/145/95
f 54/145/96 78/147/96 98/148/96 84/146/96
